Coordinates
version=1
nRows=18
nColumns=28
inDegrees=yes

Units are S.I. units (second, meters, Newtons, ...)
Angles are in degrees.

endheader
time	pelvis_tilt	pelvis_list	pelvis_rotation	pelvis_tx	pelvis_ty	pelvis_tz	hip_flexion_r	hip_adduction_r	hip_rotation_r	knee_angle_r	ankle_angle_r	subtalar_angle_r	mtp_angle_r	hip_flexion_l	hip_adduction_l	hip_rotation_l	knee_angle_l	socket_flexion	socket_adduction	socket_rotation	socket_tx	socket_ty	socket_tz	foot_flex	lumbar_extension	lumbar_bending	lumbar_rotation
      0.00000000	      5.60761918	    -14.98051107	    -16.32537531	     -0.75088830	      1.00379110	      0.35095442	    -28.90522373	      9.37756153	      3.22625458	     -9.57091008	     -2.74022877	      7.76507612	     41.84667462	     16.01184261	    -19.16517549	      5.69973400	     -5.78073259	      0.00000000	      0.00000000	      0.00000000	      0.00000000	     -0.01516304	      0.00000000	     -0.57227575	    -21.55680660	     10.90941195	     25.94076788
      0.00416667	      5.53669452	    -15.00991780	    -16.30444411	     -0.74552961	      1.00287971	      0.35053854	    -29.02541898	      9.32199275	      3.29759832	     -9.73811081	     -2.78239821	      7.77271755	     41.85051306	     15.85707680	    -19.09917603	      5.78075414	     -5.85881635	      0.00000000	      0.00000000	      0.00000000	      0.00000000	     -0.01585316	      0.00000000	     -0.68513343	    -21.40654734	     10.96802965	     25.94541215
      0.00833333	      5.43098020	    -15.09669898	    -16.32955637	     -0.74000063	      1.00194378	      0.35011925	    -29.05653140	      9.31069606	      3.38989654	    -10.05748911	     -3.00214312	      7.75409703	     41.86067062	     15.61141490	    -19.12350003	      5.95516996	     -5.71499353	      0.00000000	      0.00000000	      0.00000000	      0.00000000	     -0.01677251	      0.00000000	     -1.28155811	    -21.27852390	     11.07907070	     25.97438673
      0.01250000	      5.32507243	    -15.16906634	    -16.34542171	     -0.73426094	      1.00101396	      0.34967169	    -29.10040534	      9.28500215	      3.47904855	    -10.35432181	     -3.19431262	      7.70980753	     41.87506077	     15.40561062	    -19.11767902	      6.07721740	     -5.68639475	      0.00000000	      0.00000000	      0.00000000	      0.00000000	     -0.01765491	      0.00000000	     -1.61814850	    -21.12987554	     11.19188289	     26.00058879
      0.01666667	      5.21065343	    -15.23741915	    -16.35805151	     -0.72837618	      1.00007755	      0.34916618	    -29.13250296	      9.25884778	      3.57670494	    -10.66159926	     -3.40529936	      7.63448559	     41.89280989	     15.21560670	    -19.10172905	      6.18725836	     -5.67942055	      0.00000000	      0.00000000	      0.00000000	      0.00000000	     -0.01856624	      0.00000000	     -1.96497139	    -20.97008618	     11.30043668	     26.02426006
      0.02083333	      5.12791793	    -15.26556488	    -16.30742763	     -0.72223567	      0.99914350	      0.34862162	    -29.22617087	      9.21157828	      3.67069920	    -10.90572156	     -3.49914219	      7.60885829	     41.89894240	     15.04030812	    -19.01391177	      6.25855481	     -5.74847659	      0.00000000	      0.00000000	      0.00000000	      0.00000000	     -0.01944421	      0.00000000	     -2.10803258	    -20.78908654	     11.38631061	     26.02992006
      0.02500000	      4.99132754	    -15.31134355	    -16.35014197	     -0.71622894	      0.99829758	      0.34814209	    -29.14733807	      9.16723030	      3.78470687	    -11.36830166	     -3.85377344	      7.44789026	     41.90403828	     14.82638545	    -18.99197277	      6.43688530	     -5.66593544	      0.00000000	      0.00000000	      0.00000000	      0.00000000	     -0.02036091	      0.00000000	     -2.65292022	    -20.62185809	     11.45488560	     26.02670900
      0.02916667	      4.41175743	    -15.42420786	    -16.50604064	     -0.70995515	      0.99704680	      0.34777741	    -28.77976746	      9.35283368	      4.47250203	    -11.60047361	     -4.67274745	      5.78511346	     42.50805162	     15.12958311	    -19.15694452	      6.56942447	     -5.77222582	      0.00000000	      0.00000000	      0.00000000	      0.00000000	     -0.02131476	      0.00000000	     -2.94342643	    -19.96929742	     11.76660343	     26.18242270
      0.03333333	      4.35534499	    -15.43005610	    -16.42299914	     -0.70356274	      0.99627681	      0.34714224	    -28.85734021	      9.29834785	      4.58848509	    -11.89697669	     -4.77066623	      5.76694401	     42.51117212	     14.92319263	    -19.02591427	      6.65879960	     -5.84722329	      0.00000000	      0.00000000	      0.00000000	      0.00000000	     -0.02224383	      0.00000000	     -3.08497007	    -19.78980340	     11.82871595	     26.17009129
      0.03750000	      4.28287145	    -15.39622046	    -16.42434431	     -0.69750538	      0.99569593	      0.34658396	    -28.74783200	      9.19064855	      4.67611789	    -12.46313714	     -5.15264286	      5.60656582	     42.48992569	     14.69495660	    -18.89546236	      6.83384047	     -5.83616512	      0.00000000	      0.00000000	      0.00000000	      0.00000000	     -0.02300623	      0.00000000	     -3.55990154	    -19.67955140	     11.78350609	     26.09398508
      0.04166667	      4.22903107	    -15.39771367	    -16.32184709	     -0.69093380	      0.99502578	      0.34590400	    -28.82239470	      9.13853939	      4.77517932	    -12.74959095	     -5.26527869	      5.57078827	     42.48712015	     14.50140874	    -18.75202581	      6.87298248	     -5.95801014	      0.00000000	      0.00000000	      0.00000000	      0.00000000	     -0.02398549	      0.00000000	     -3.65033267	    -19.46967349	     11.85395130	     26.08022334
      0.04583333	      3.94560130	    -15.08784391	    -16.34089748	     -0.68456456	      0.99441239	      0.34548274	    -28.37350882	      8.87332326	      4.72718043	    -13.36403927	     -6.34402046	      4.46215603	     42.54766749	     14.56440967	    -18.37407944	      6.91695011	     -6.00873293	      0.00000000	      0.00000000	      0.00000000	      0.00000000	     -0.02435776	      0.00000000	     -4.02447330	    -18.99306000	     11.61817907	     25.78320787
      0.05000000	      3.89724578	    -15.03874003	    -16.24429009	     -0.67836239	      0.99402063	      0.34481167	    -28.28008207	      8.81349671	      4.90236604	    -13.90869400	     -6.63778915	      4.29381325	     42.56146010	     14.38363868	    -18.19376918	      7.08292126	     -6.10057152	      0.00000000	      0.00000000	      0.00000000	      0.00000000	     -0.02507707	      0.00000000	     -4.28010898	    -18.85421013	     11.56698808	     25.70676614
      0.05416667	      3.83096364	    -14.90748493	    -16.17163247	     -0.67213826	      0.99370362	      0.34415756	    -28.07978110	      8.67214620	      4.95337118	    -14.55035229	     -7.15233489	      3.94356491	     42.54421727	     14.24165845	    -17.93432524	      7.15307706	     -6.22549549	      0.00000000	      0.00000000	      0.00000000	      0.00000000	     -0.02567873	      0.00000000	     -4.51593245	    -18.68167555	     11.46130131	     25.56883219
      0.05833333	      3.42131666	    -14.63327094	    -16.01506519	     -0.66547489	      0.99306228	      0.34355924	    -27.60320593	      8.60660502	      5.08707316	    -14.96468910	     -8.18990025	      2.02884984	     43.27896192	     14.55876379	    -17.58004021	      7.34204664	     -6.42475287	      0.00000000	      0.00000000	      0.00000000	      0.00000000	     -0.02609943	      0.00000000	     -4.64056460	    -17.97160670	     11.36903721	     25.08388709
      0.06250000	      3.43615604	    -14.50144253	    -15.89201451	     -0.65934669	      0.99302178	      0.34280140	    -27.45843255	      8.47780535	      5.26123365	    -15.61444970	     -8.57531968	      1.93487474	     43.25467654	     14.35437641	    -17.29683027	      7.46704499	     -6.57218055	      0.00000000	      0.00000000	      0.00000000	      0.00000000	     -0.02659777	      0.00000000	     -4.80952381	    -17.88638822	     11.21893364	     25.01563683
      0.06666667	      3.38952695	    -14.01430411	    -15.76259916	     -0.65275158	      0.99298508	      0.34228400	    -27.10455383	      8.01758076	      4.90242249	    -16.33225857	     -9.48171312	      1.24299204	     43.24408291	     14.24861207	    -16.64947772	      7.30892376	     -6.71096128	      0.00000000	      0.00000000	      0.00000000	      0.00000000	     -0.02673162	      0.00000000	     -4.93568938	    -17.52250948	     10.72406091	     24.69629563
      0.07083333	      3.38506347	    -13.73015877	    -15.61167319	     -0.64648972	      0.99305278	      0.34158113	    -26.78227280	      7.75968413	      4.75231792	    -17.15842857	    -10.19111313	      0.79994020	     43.27319357	     14.10183108	    -16.20928245	      7.32022178	     -6.88112209	      0.00000000	      0.00000000	      0.00000000	      0.00000000	     -0.02699684	      0.00000000	     -5.04788437	    -17.33362980	     10.43255835	     24.42263532
